<?xml version="1.0"?><svg width="640" height="480" xmlns="http://www.w3.org/2000/svg">
 <title>COSMIC PANDA WAVING</title>
 <metadata id="metadata7">image/svg+xml</metadata>

 <g>
  <title>Layer 1</title>
  <path d="m207,259c35.354004,24 121,-39 121,97l-121,-97z" stroke-width="null" stroke-linejoin="null" stroke-linecap="null" stroke-dasharray="null" fill="#000000" id="svg_6"/>
  <path d="m288.243988,3.66541c-17.265991,0.531 -39.672989,16.40389 -45.387985,33.877292c-1.567001,4.792599 -2.850998,10.152599 -2.837006,11.892498c0.031006,3.734501 3.305008,12.820499 7.856003,21.930202c1.792007,3.588394 2.921997,6.746796 2.509003,7.0373c-28.727005,20.251297 -45.863998,41.306297 -57.115997,70.209297c-6.832001,17.548996 -8.634003,33.244003 -10.093002,87.339005c-0.979004,36.327988 -0.798996,42.776993 1.636993,48.60701c3.09201,7.399994 3.720001,16.041992 1.255005,17.565979c-1.591003,0.983002 -12.906998,-7.621002 -21.276001,-16.203003c-8.552002,-8.768982 -23.843994,-32.596985 -28.531006,-44.459991c-8.554993,-21.651993 -11.455994,-36.718002 -11.455994,-59.026001c0,-11.322998 0.698997,-22.343994 1.582001,-24.548996c0.882996,-2.205002 2.934006,-8.356995 4.528,-13.638c1.593994,-5.281006 4.587997,-13.136002 6.654999,-17.457001c5.001007,-10.451004 22.059998,-33.004097 28.912994,-38.241501c6.421005,-4.906296 7.093002,-8.899803 1.528,-8.892097c-5.23999,0.007195 -27.612991,18.966599 -39.223999,33.222595c-5.069992,6.226006 -12.655998,18.362007 -16.856995,27.004005c-6.891998,14.177994 -9.073997,21.250992 -15.001503,48.332993c-3.700996,16.909012 -1.9888,45.557999 4.418503,73.865005c1.304001,5.760986 2.5,21.471985 2.672997,34.914001c0.223,17.325989 0.989006,25.434998 2.673004,27.876007c1.306999,1.893982 2.401001,5.210999 2.401001,7.36499c0,2.153992 1.101997,6.502991 2.454994,9.654999c1.352005,3.153015 5.031006,12.013 8.183006,19.694c10.056,24.507996 22.46199,40.872009 36.112991,47.734009c11.210007,5.634003 27.783005,8.009003 40.424011,5.781982c13.411987,-2.362 17.565994,-5.66098 17.565994,-13.964996c0,-5.384003 -1.397003,-10.992004 -8.891998,-36.169006c-2.468994,-8.292999 -2.007004,-16.474976 0.927002,-16.474976c2.800003,0 7.964996,6.509979 7.964996,10.037994c0,1.247009 2.464996,7.55899 5.509995,14.019989c3.044006,6.460999 7.944,16.834991 10.856003,23.076019c7.469009,16.007996 19.692001,36.060974 28.039993,46.041992c6.675995,7.983002 28.157013,23.785004 32.350006,23.785004c1.045013,0 3.656006,1.074982 5.782013,2.401001c2.126984,1.324982 7.78598,2.886993 12.546997,3.490997c4.761993,0.604004 9.414001,1.885986 10.36499,2.837006c2.575012,2.573975 9.550018,2.151978 24.494995,-1.582001c14.994019,-3.747009 21.131012,-7.116028 22.803009,-12.384003c1.095001,-3.451019 -1.628998,-14.77301 -4.419006,-18.32901c-1.684998,-2.14801 -7.442993,-19.640991 -10.309998,-31.423004c-3.333984,-13.696991 -4.350006,-37.639008 -2.018982,-47.296997c3.964996,-16.428986 7.140991,-18.21701 40.313995,-22.476013c16.552979,-2.123993 23.29599,-3.495972 46.260986,-9.436981c27.22699,-7.044006 59.537994,-25.673004 77.083008,-44.460999c15.416992,-16.507996 19.541016,-24.679993 30.494995,-60.499008c1.359985,-4.444992 2.406006,-15.434006 2.401001,-25.311996c-0.008972,-16.048004 -0.474976,-18.373001 -5.565002,-28.804001c-10.466003,-21.449997 -30.286011,-40.878998 -45.660004,-44.788002c-5.411987,-1.375999 -19.48999,5.299995 -26.567993,12.601997c-4.903992,5.059998 -5.414001,6.526001 -4.636993,13.255997c0.481995,4.168015 2.548981,13.082001 4.582977,19.803009c9.297028,30.725998 12.922028,63.660004 8.23703,74.681992c-4.537018,10.675003 -28.96701,30.931992 -37.314026,30.931992c-1.773987,0 -4.156982,0.939026 -5.290985,2.073029c-1.774017,1.77298 -10.93399,3.551971 -28.313019,5.563995c-8.634979,1 -13.164978,3.425995 -18.765991,9.928986c-8.031006,9.324005 -12.734985,9.806 -29.186005,3.164001c-12.535004,-5.061005 -14.419983,-5.36499 -21.711975,-3.654999c-17.397003,4.07901 -16.663025,4.130005 -22.258026,-1.855011c-2.894989,-3.096985 -7.072998,-8.644989 -9.273987,-12.328979c-5.233002,-8.76001 -10.364014,-13.365021 -14.78299,-13.365021c-6.126007,0 -24.427002,-10.207977 -34.641006,-19.311981c-10.911011,-9.725006 -18.246002,-21.378006 -24.113007,-38.296005c-5.666992,-16.343002 -5.641006,-49.085007 0.055008,-68.899994c4.252991,-14.797005 15.612,-38.161003 23.620987,-48.661209c4.710007,-6.174896 10.065994,-8.210899 12.275009,-4.636993c2.38501,3.859299 11.062988,1.619698 19.419983,-5.018806c4.686005,-3.722198 15.188019,-10.448296 23.348999,-14.947495c8.161011,-4.499104 15.536011,-8.892601 16.420013,-9.764904c3.523987,-3.475098 1.281006,-18.691597 -4.527985,-30.604097c-6.379028,-13.083101 -14.615021,-20.417781 -26.512024,-23.621331c-2.194977,-0.591 -4.515991,-0.8396 -6.983002,-0.76376zm178.988007,25.31249c-5.613983,0.182501 -10.924988,1.2416 -14.402008,3.109499c-16.911987,9.084103 14.277008,63.8288 -22.093994,44.405903c-36.371002,-19.422901 6.71402,5.545197 12.220001,9.001198c5.506012,3.4561 14.756012,11.119499 20.56601,17.0205l10.528992,10.747002l9.054993,-0.873001c8.179016,-0.786003 9.848022,-1.736 17.130005,-9.655998c8.423004,-9.159805 15.60202,-22.236603 15.60202,-28.421799c0,-13.773304 -14.52301,-35.100502 -28.476013,-41.841904c-4.609009,-2.226799 -11.243011,-3.4219 -17.730011,-3.4914c-0.810974,-0.008699 -1.597992,-0.0261 -2.399994,0l0,0zm-158.584991,128.035101c-16.946991,0.621002 -36.43399,18.850006 -38.459991,41.188004c-1.143005,12.60199 3.875977,24.815994 12.382996,30.003998c8.712006,5.311996 16.979004,4.337997 25.803986,-3.001007c4.171021,-3.468994 8.285004,-7.593002 9.165009,-9.164993c0.880005,-1.572006 5.110992,-6.966995 9.382996,-12.001007c7.76001,-9.145996 7.746002,-9.164993 6.492004,-19.202988c-1.416992,-11.335007 -3.920013,-17.09201 -9.873993,-22.530014c-3.822998,-3.491989 -8.412018,-5.138992 -13.257019,-5.291992c-0.539978,-0.016998 -1.089996,-0.020004 -1.635986,0zm104.740997,13.692993c-7.743988,0.139999 -14.429993,5.554001 -20.894012,16.584c-5.886993,10.045013 -4.970978,17.618011 4.528015,37.423004c7.779999,16.221008 9.480011,18.688995 15.765991,23.020996c5.640015,3.888 11.545013,3.569 20.075012,-1.090988c10.473999,-5.721008 14.850983,-14.771011 14.838989,-30.822006c-0.014984,-19.988007 -7.837982,-34.25 -23.022003,-42.059998c-4.040985,-2.078995 -7.772003,-3.119003 -11.291992,-3.055008zm-107.468994,6.710007c3.156982,0 5.727997,3.600006 5.727997,8.018997c0,4.419006 -2.571014,8.018997 -5.727997,8.018997c-3.157013,0 -5.727997,-3.598999 -5.727997,-8.018997c0,-4.418991 2.570984,-8.018997 5.727997,-8.018997zm110.959991,12.602005c3.156006,0 5.727997,3.544998 5.727997,7.963989c0,4.419998 -2.571991,8.020004 -5.727997,8.020004c-3.156006,0 -5.727997,-3.600006 -5.727997,-8.020004c0,-4.419998 2.571991,-7.963989 5.727997,-7.963989zm-79.373993,67.863007c-5.751007,0.166992 -10.350006,1.03598 -12.220001,2.727997c-5.679993,5.140991 -3.959991,8.882996 6.437988,13.802002c5.313995,2.513977 10.921021,6.467987 12.438019,8.78299c1.515991,2.313995 3.048004,4.200012 3.435974,4.200012c0.389008,0 3.835022,-1.96402 7.638,-4.364014c3.802002,-2.399994 8.526001,-4.364014 10.528015,-4.364014c8.726013,0 14.109985,-8.823975 8.238007,-13.528992c-5.791992,-4.641998 -23.843018,-7.621979 -36.496002,-7.255981zm-10.583008,45.93399c0.471008,-0.015991 0.990997,-0.016998 1.527008,0c2.859985,0.091003 6.619995,0.690002 11.292999,1.744995c6.835999,1.544006 15.820007,2.78299 19.966003,2.78299c9.556,0 11.414001,2.862 5.291992,8.128021c-4.046997,3.47998 -6.636993,4.091003 -17.674988,4.091003c-11.979004,0 -13.378998,-0.383026 -19.094025,-5.400024c-8.139984,-7.146973 -8.380981,-11.105988 -1.30899,-11.346985z" fill="#000000" id="path2181"/>
  <circle r="23.8537" cy="190" cx="300" stroke-width="null" stroke-linejoin="null" stroke-linecap="null" stroke-dasharray="null" stroke="null" fill="#000000" id="svg_68"/>
  <ellipse ry="10.5" rx="34.5" cy="299.5" cx="357.5" stroke-width="5" stroke="#ffffff" fill="none" id="svg_3"/>
  <path d="m513.280029,288.463013c56.282959,17.649994 -143.280029,-51.479019 -143.280029,48.536987l143.280029,-48.536987z" stroke-width="null" stroke-linejoin="null" stroke-linecap="null" stroke-dasharray="null" fill="#000000" id="svg_7"/>
  <ellipse ry="9" rx="6" cy="184" cx="303" stroke-width="null" stroke-linejoin="null" stroke-linecap="null" stroke-dasharray="null" stroke="null" fill="#ffffff" id="svg_4"/>
 </g>
</svg>